<svg width="24" height="21" viewBox="0 0 24 21" fill="none" xmlns="http://www.w3.org/2000/svg">
<path id="Caminho 1195" d="M2 3.22676C1.9601 2.87167 1.99729 2.51221 2.10901 2.1728C2.20488 1.98465 2.35783 1.83166 2.54599 1.73579C2.8854 1.6241 3.24492 1.58692 3.6 1.62678H20.4C20.7551 1.58692 21.1146 1.6241 21.454 1.73579C21.6422 1.83166 21.7951 1.98465 21.891 2.1728C22.0027 2.51221 22.0399 2.87167 22 3.22676V3.89576C22.0108 4.07278 21.9997 4.25045 21.967 4.42475C21.9377 4.53525 21.89 4.64003 21.826 4.73475C21.7153 4.87284 21.5884 4.99713 21.448 5.10481L15.048 10.6488C14.9076 10.7564 14.7807 10.8807 14.67 11.0188C14.606 11.1135 14.5583 11.2183 14.529 11.3288C14.4963 11.5031 14.4852 11.6808 14.496 11.8578V17.0848C14.507 17.2117 14.4962 17.3395 14.464 17.4628C14.4371 17.5393 14.3918 17.608 14.332 17.6628C14.2293 17.7378 14.1147 17.7949 13.993 17.8318L10.593 19.1918C10.226 19.3388 10.042 19.4128 9.893 19.3818C9.76405 19.355 9.65085 19.2785 9.578 19.1688C9.49017 18.9396 9.46162 18.692 9.49499 18.4488V11.8618C9.50581 11.6847 9.49474 11.5071 9.462 11.3328C9.43267 11.2223 9.38502 11.1175 9.32101 11.0228C9.21035 10.8847 9.08341 10.7605 8.94299 10.6528L2.543 5.10878C2.40258 5.00109 2.27567 4.87687 2.16501 4.73878C2.101 4.64406 2.05332 4.53927 2.02399 4.42878C1.99125 4.25448 1.98018 4.07681 1.991 3.89979L2 3.22676Z" stroke="#01497C" stroke-width="2" stroke-linecap="round" stroke-linejoin="round"/>
</svg>
