<svg width="67" height="16" viewBox="0 0 67 16" fill="none" xmlns="http://www.w3.org/2000/svg">
<path d="M0 15.7778V0.222222H2.25624L12.2116 12.9556L11.8395 13.1556C11.7774 12.7852 11.7232 12.3852 11.6766 11.9556C11.6301 11.5111 11.5836 11.0444 11.5371 10.5556C11.5061 10.0519 11.475 9.52593 11.444 8.97778C11.4285 8.41481 11.413 7.82963 11.3975 7.22222C11.382 6.61481 11.3743 5.98519 11.3743 5.33333V0.222222H13.8864V15.7778H11.5836L1.79104 3.51111L2.0469 3.2C2.12443 4.1037 2.18646 4.87407 2.23298 5.51111C2.29501 6.13333 2.34153 6.66667 2.37254 7.11111C2.41906 7.54074 2.45008 7.8963 2.46558 8.17778C2.48109 8.44444 2.48884 8.66667 2.48884 8.84445C2.50435 9.02222 2.5121 9.17778 2.5121 9.31111V15.7778H0Z" fill="#161616"/>
<path d="M25.2599 16C24.1124 16 23.0502 15.8 22.0732 15.4C21.1118 15 20.2667 14.4444 19.5379 13.7333C18.8246 13.0074 18.2663 12.163 17.8631 11.2C17.4755 10.2222 17.2816 9.15556 17.2816 8C17.2816 6.84444 17.4755 5.78519 17.8631 4.82222C18.2663 3.84444 18.8246 3 19.5379 2.28889C20.2667 1.56296 21.1118 1 22.0732 0.6C23.0502 0.2 24.1124 0 25.2599 0C26.4074 0 27.4619 0.2 28.4233 0.6C29.4002 1 30.2453 1.56296 30.9586 2.28889C31.6875 3.01481 32.2457 3.86667 32.6334 4.84444C33.0366 5.80741 33.2381 6.85926 33.2381 8C33.2381 9.14074 33.0366 10.2 32.6334 11.1778C32.2457 12.1407 31.6875 12.9852 30.9586 13.7111C30.2453 14.437 29.4002 15 28.4233 15.4C27.4619 15.8 26.4074 16 25.2599 16ZM25.2599 13.6667C26.0507 13.6667 26.7718 13.5259 27.4231 13.2444C28.0899 12.963 28.6636 12.5704 29.1443 12.0667C29.6251 11.5481 29.9972 10.9481 30.2608 10.2667C30.54 9.57037 30.6795 8.81481 30.6795 8C30.6795 7.18518 30.54 6.43704 30.2608 5.75556C29.9972 5.05926 29.6251 4.45926 29.1443 3.95556C28.6636 3.43704 28.0899 3.03704 27.4231 2.75556C26.7718 2.47407 26.0507 2.33333 25.2599 2.33333C24.469 2.33333 23.7402 2.47407 23.0734 2.75556C22.4221 3.03704 21.8484 3.42963 21.3522 3.93333C20.8715 4.43704 20.4993 5.03704 20.2357 5.73333C19.9721 6.41481 19.8402 7.17037 19.8402 8C19.8402 8.81481 19.9721 9.57037 20.2357 10.2667C20.4993 10.963 20.8715 11.563 21.3522 12.0667C21.8484 12.5704 22.4221 12.963 23.0734 13.2444C23.7402 13.5259 24.469 13.6667 25.2599 13.6667Z" fill="#161616"/>
<path d="M36.6394 15.7778V0.222222H39.105L45.0363 9.44444L43.8501 9.42222L49.8512 0.222222H52.1772V15.7778H49.6651V9.4C49.6651 8.06667 49.6961 6.86667 49.7582 5.8C49.8357 4.73333 49.9598 3.67407 50.1303 2.62222L50.456 3.44444L45.1294 11.3111H43.5942L38.4304 3.53333L38.6863 2.62222C38.8569 3.61481 38.9732 4.63704 39.0352 5.68889C39.1127 6.72593 39.1515 7.96296 39.1515 9.4V15.7778H36.6394Z" fill="#161616"/>
<path d="M56.7422 15.7778V0.222222H67V2.53333H59.2543V13.4667H67V15.7778H56.7422ZM57.882 8.95556V6.64444H65.7207V8.95556H57.882Z" fill="#161616"/>
</svg>
